<!-- Created with Inkscape (http://www.inkscape.org/) -->
<svg width="9.6296in" height="5.8719in" version="1.1" viewBox="0 0 244.59 149.15" xmlns="http://www.w3.org/2000/svg">
 <g transform="translate(1.9864 -51.041)">
  <rect x="-1.9864" y="51.041" width="244.59" height="149.15" style="fill:#77bc3f;stroke-linejoin:round;stroke-width:1.1344"/>
  <path d="m129.5 113.26v-51.363h102.73v102.73h-102.73zm14.714 13.98c0.59789-3.0088 1.3806-6.9066 1.7394-8.6618l0.65236-3.1912h6.6316c6.509 0 6.6384-0.0272 7.001-1.4715 0.86282-3.4378 0.46869-3.6805-6.2798-3.8684-3.4228-0.0953-6.2233-0.28254-6.2233-0.41614 0-0.28275 1.67-8.4902 2.1372-10.504 0.31046-1.338 0.50186-1.3677 8.8156-1.3677 6.8054 0 8.4983-0.16649 8.4983-0.83579 0-0.45968 0.17095-1.6906 0.3799-2.7353l0.3799-1.8995h-11.28c-10.217 0-11.31 0.10029-11.598 1.0637-1.0255 3.4304-7.6003 38.668-7.3042 39.148 0.19676 0.31837 1.484 0.49597 2.8605 0.39466l2.5028-0.18418zm22.225 4.103c0.63744-0.91937 2.218-3.6547 3.5124-6.0785l2.3535-4.4069h14.184l0.76326 5.0147c0.41979 2.7581 1.0099 5.4934 1.3114 6.0784 0.65078 1.2629 4.6355 1.4884 5.096 0.28838 0.16364-0.42644-1.1442-9.5213-2.9064-20.211l-3.2039-19.436-5.5715-0.36224-11.027 19.868c-6.0646 10.928-10.881 20.104-10.703 20.392 0.17798 0.28799 1.383 0.52361 2.6777 0.52361 1.8819 0 2.5866-0.33528 3.5131-1.6716zm38.235 0.70566c0.20386-0.53125 1.102-4.4291 1.996-8.6618l1.6253-7.6959 6.5178-0.17276c6.345-0.16818 6.5332-0.21353 7.1026-1.7112 1.4283-3.7568 1.2216-3.8906-6.0122-3.8906h-6.5971l2.4244-12.157h8.3591c9.1512 0 9.097 0.02262 9.097-3.7917v-1.8687l-11.059 0.41517c-6.0824 0.22834-11.156 0.51218-11.274 0.63075-0.36895 0.36895-7.4511 36.886-7.4511 38.419 0 1.289 0.27295 1.4506 2.4505 1.4506 1.6785 0 2.5672-0.30428 2.8211-0.96591z" style="fill:#ffffff;stroke-linejoin:round;stroke-width:3.0392"/>
  <path d="m176.47 113.41c0.8227-1.4208 2.6879-4.7699 4.145-7.4423l2.6492-4.8589 1.0417 6.0746c1.6424 9.578 2.0005 8.8099-4.1072 8.8099h-5.2244z" style="fill:#ffffff;stroke-linejoin:round;stroke-width:3.0392"/>
  <text x="7.0114594" y="189.33517" style="font-family:sans-serif;font-size:19.05px;font-style:italic;font-variant-caps:normal;font-variant-east-asian:normal;font-variant-ligatures:normal;font-variant-numeric:normal;letter-spacing:8.2021px;line-height:0.95;stroke-width:.26458" xml:space="preserve"><tspan x="7.0114594" y="189.33517" style="fill:#ffffff;font-family:sans-serif;font-size:23.812px;font-style:italic;font-variant-caps:normal;font-variant-east-asian:normal;font-variant-ligatures:normal;font-variant-numeric:normal">FIND A FIELD</tspan></text>
  <path d="m25.1 146.62-9.0835 0.0305c-4.3316 0.0822-7.4733-3.3302-7.4803-7.0214l0.00468-25.874c0.0028-15.48-0.06462-24.97-0.039775-27.113 0.014362-3.2549 2.7782-6.6066 6.1583-7.0444 7.1494-0.14388 16.301-0.17143 46.356-0.09559 35.599 0.08983 45.691-0.06238 46.524 0.08356 3.0543 0.53509 4.8394 2.3963 5.5571 5.7941 0.2928 1.3863 0.30651 2.2057 0.38893 23.243 0.0913 23.297-0.0236 31.412-0.46774 33.04-0.51254 1.8792-1.5064 3.1206-3.0469 3.8056-1.0613 0.47192-1.938 0.66654-4.2363 0.94037-1.7448 0.20789-6.3435 0.24223-36.793 0.27472-19.14 0.0204-38.868-8e-3 -43.841-0.0639zm33.344-4.4274c0.04937-0.0494 0.13391-3.024 0.18786-6.6103l0.09809-6.5205-1.4289-0.36095c-3.7804-0.95496-7.0754-3.0832-9.2732-5.9897-2.415-3.1937-3.5897-7.3192-3.1766-11.156 0.62239-5.7807 3.9906-10.666 9.0454-13.119 1.5187-0.73705 3.0029-1.208 3.821-1.2124 0.92965-5e-3 0.88588 0.31584 0.93252-6.8349l0.04269-6.5446-21.089 0.04257-22.14 0.07077c-1.8615 0.11008-2.551 0.72583-2.5022 2.8361 0.07072 2.5982 0.0041 7.8457-0.03218 10.843 7.1566 0.38384 13.113 7.3265 13.127 14.94-0.21592 8.424-5.7552 15.815-13.053 16.479l-0.11325 4.9756c0.07301 1.7644 0.08654 4.0414 0.08508 5.2535 0.12214 0.90622 1.541 2.6728 3.2939 2.6925 10.303 3.2e-4 28.599 0.22282 42.176 0.21537zm50.65-3.7052c0.0254-0.49136 0.0164-2.5447 0.0487-3.4688 0.0719-1.8554 0.1337-3.8977 0.13727-4.5385l7e-3 -1.1651-1.9375-0.64479c-3.723-1.239-5.5402-2.3082-7.6412-4.4958-1.5089-1.5711-2.2008-2.5739-3.1312-4.538-1.7394-3.672-1.9983-7.4862-0.77839-11.469 0.86126-2.812 3.1083-5.9026 5.7234-7.8718 2.6813-1.8011 5.0178-2.6687 7.7198-3.5716-2e-3 -1.1699 0.0223-3.6328-0.0988-6.1081-0.10681-2.1823-0.15715-2.8058-0.22403-3.5417-0.0142-1.9921-1.5884-3.1037-3.5071-3.1446l-42.173-0.08514 0.03961 6.5585 0.03961 6.5585 1.9755 0.6424c3.3137 1.0776 5.0704 2.1284 7.2182 4.3177 2.1981 2.2406 3.5709 4.7809 4.198 7.7679 0.38323 1.8256 0.37963 5.5966-0.0067 7.0638-1.5118 6.436-7.7433 10.542-13.608 12.443 0.0493 4.1953 0.03853 6.3859-0.01428 13.114 6.2095-0.021 17.352-8e-3 21.74-0.0114l20.591-0.0165c2.7895 0.0265 3.5518-1.4053 3.682-3.795zm-45.158-14.069c1.5035-0.26724 3.5449-1.3769 4.9299-2.6798 1.4484-1.3626 2.0684-2.1824 2.924-3.8665l0.64589-1.2714c0.91969-2.7246 0.72861-4.724 0-6.9902l-0.55812-1.1688c-2.1967-4.6002-6.019-7.1131-10.819-7.1131-5.5932 0-10.172 3.4297-11.666 8.7378-0.50776 1.8044-0.47232 4.3599 0.08633 6.2248 0.77525 2.588 2.0389 4.4137 4.1775 6.0356 1.1602 0.87987 3.1827 1.9009 4.1368 2.0885 2.5068 0.50114 4.24 0.66692 6.1428 3e-3zm-41.612-12.063c0.08713-5.0594-3.5645-10.705-9.331-10.665-0.06533 1.6592-0.09596 4.9917-0.1067 10.995 0.06537 5.1436 0.0013 9.5216 0.11058 12.064 6.711 0.31118 9.4754-8.4427 9.3271-12.395zm86.596 11.653c0.0669-0.14626 0.14866-5.2408 0.18168-11.321l0.06-11.055h-0.37735c-0.61164 0-2.3797 0.59589-3.5246 1.1879-0.74701 0.38626-1.4764 0.96013-2.4499 1.9274-1.1858 1.1783-1.4864 1.5852-2.0804 2.8161-1.0397 2.1547-1.2375 3.0391-1.2394 5.5418-0.0019 2.4534 0.2525 3.5254 1.3343 5.6226 0.80548 1.5614 2.9 3.7207 4.3347 4.4687 1.9877 1.0363 3.5081 1.3646 3.7608 0.81198z" style="fill:#ffffff;stroke-linejoin:round;stroke-width:.75981"/>
 </g>
</svg>
